<svg xmlns="http://www.w3.org/2000/svg" width="480" height="280" viewBox="0 0 480 280" role="img" aria-label="Digital Marketplace MM">
  <defs>
    <linearGradient id="bg2" x1="0" y1="0" x2="1" y2="1">
      <stop offset="0" stop-color="#16140f"/>
      <stop offset="1" stop-color="#1d1430"/>
    </linearGradient>
    <radialGradient id="glow2" cx="0.2" cy="0.8" r="0.9">
      <stop offset="0" stop-color="#a78bfa" stop-opacity="0.35"/>
      <stop offset="1" stop-color="#a78bfa" stop-opacity="0"/>
    </radialGradient>
  </defs>
  <rect width="480" height="280" fill="url(#bg2)"/>
  <rect width="480" height="280" fill="url(#glow2)"/>
  <g stroke="#a78bfa" stroke-opacity="0.15" stroke-width="1">
    <path d="M0 70h480M0 140h480M0 210h480M120 0v280M240 0v280M360 0v280"/>
  </g>
  <g transform="translate(204,84)" fill="none" stroke="#a78bfa" stroke-width="5" stroke-linejoin="round">
    <path d="M0 22 10 0h52l10 22v8a12 12 0 0 1-24 0 12 12 0 0 1-24 0 12 12 0 0 1-24 0z"/>
    <path d="M6 40v26h60V40M28 66V48h16v18"/>
  </g>
  <text x="240" y="208" text-anchor="middle" font-family="monospace" font-size="26" font-weight="bold" fill="#f5f3ee">Digital Marketplace MM</text>
  <text x="240" y="236" text-anchor="middle" font-family="monospace" font-size="14" fill="#a78bfa">digitalmarketplacemm.com</text>
</svg>
